# xmcd
#
# Track frame offsets:
#	150
#	17394
#	30139
#	46079
#	55883
#	73155
#	87564
#	100696
#	119352
#	133262
#	159898
#	178378
#	201660
#	216643
#	234909
#	248157
#	275039
#	292477
#
# Disc length: 3996 seconds
#
# Revision: 1
# Processed by: cddbd v1.5.2PL0 Copyright (c) Steve Scherf et al.
# Submitted via: audiograbber 1.83.01
#
DISCID=130f9a12
DTITLE=Diverse - Balkan Disco
DYEAR=2008
DGENRE=Polka
TTITLE0=Shantel and Bucovina Orkestar - Ciganka Medley
TTITLE1=Fanfare Ciocarlia - Sandala
TTITLE2=Miss Platnum - Mercedes Benz
TTITLE3=Omfo - Magic Mamaliga
TTITLE4=Watcha Clan - Balkan Qoulou
TTITLE5=Boban Marcovic Orkestar - Mundo Cocek
TTITLE6=Boom Pam - Wedding Song
TTITLE7=Boris Kovac &Ladaaba Orchest - Balkatino
TTITLE8=Shantel - Borino Ono
TTITLE9=Balkan Beat Box - Bulgarian Chicks
TTITLE10=Mahala Rai Banda - Mahalageasca
TTITLE11=Balkan Playboys - Rumanyatz
TTITLE12=Let 3 - TaziTazi
TTITLE13=Rushaja - Dawai
TTITLE14=Trovaci - Sta Su Zapravo Trovaci
TTITLE15=N.O.H.A. - Balkan Hot Step
TTITLE16=Shantel - Marko i Shantel
TTITLE17=Fanfare Ciocarlia - Farewell March
EXTD=
EXTT0=
EXTT1=
EXTT2=
EXTT3=
EXTT4=
EXTT5=
EXTT6=
EXTT7=
EXTT8=
EXTT9=
EXTT10=
EXTT11=
EXTT12=
EXTT13=
EXTT14=
EXTT15=
EXTT16=
EXTT17=
PLAYORDER=
